# xmcd
#
# Track frame offsets:
#	150
#	15652
#	29259
#	46734
#	60209
#	76122
#	95139
#	111307
#	126825
#	144215
#	163335
#	177785
#	196473
#	209076
#	223764
#
# Disc length: 3201 seconds
#
# Revision: 1
# Processed by: cddbd v1.5.2PL0 Copyright (c) Steve Scherf et al.
# Submitted via: audiograbber 1.83.01
#
DISCID=d10c7f0f
DTITLE=Various Country - Priddis Disk 9
DYEAR=1900
DGENRE=KARAOKE
TTITLE0=Morgan, Lorrie - I Didn't Know My Own Strength
TTITLE1=Loveless, Patty - I Try To Think About Elvis
TTITLE2=Trococoli, Patty - If I'm Not In Love
TTITLE3=Sawyer Brown - Step That Step
TTITLE4=Blackhawk - Every Once In Awhile
TTITLE5=Hill, Faith - Piece Of My Heart
TTITLE6=Mc Entire, Reba - Why Haven't I Heard From You?
TTITLE7=Judds, The - Granpa
TTITLE8=Travis, Randy - Forever And Amen
TTITLE9=Alabama - Mountain Music
TTITLE10=Strait, George - Ocean Front Property
TTITLE11=Montgomery, John Michael - I Love The Way You Love Me
TTITLE12=Yearwood, Trisha - That's What I Like About You
TTITLE13=Dixie Chicks - Let 'Er Rip
TTITLE14=Montgomery, John Michael - Home To You
EXTD=
EXTT0=
EXTT1=
EXTT2=
EXTT3=
EXTT4=
EXTT5=
EXTT6=
EXTT7=
EXTT8=
EXTT9=
EXTT10=
EXTT11=
EXTT12=
EXTT13=
EXTT14=
PLAYORDER=
